REM DIRINDEX 1
REM DIRNAME cjc069
TITLE ""
FILE "Disk2Track57.mp3" MP3
  TRACK 01 AUDIO
    TITLE "1:cjc069_0852"
    INDEX 01 00:00:00
  TRACK 02 AUDIO
    TITLE "1:cjc069_0853"
    INDEX 01 00:21:31
  TRACK 03 AUDIO
    TITLE "1:cjc069_0854"
    INDEX 01 00:41:45
  TRACK 04 AUDIO
    TITLE "1:cjc069_0855"
    INDEX 01 00:49:29
  TRACK 05 AUDIO
    TITLE "0:"
    INDEX 01 01:04:05
